 http://www.imdb.com/title/tt2343417/
Format : AVI
Format/Info : Audio Video Interleave
File size : 753 MiB
Duration : 2h 12mn
Overall bit rate : 792 Kbps

Video
ID : 0
Format : MPEG-4 Visual
Format profile : Advanced Simple@L5
Codec ID : XVID
Codec ID/Hint : XviD
Duration : 2h 12mn
Bit rate : 690 Kbps
Width : 688 pixels
Height : 288 pixels
Display aspect ratio : 2.40:1
Frame rate : 23.976 fps
Stream size : 656 MiB (87%)


Audio

Codec ID/Hint : MP3
Duration : 2h 12mn
Bit rate mode : Constant
Bit rate : 96.0 Kbps
Channel(s) : 2 channels
Compression mode : Lossy
Stream size : 91.3 MiB (12%)

 
http://www.shotpix.com/images/85878491130044337440.png
 
http://www.shotpix.com/images/58769526894265813192.png
 
http://www.shotpix.com/images/38070632467705192942.png
 
http://www.shotpix.com/images/21945948083749705617.png
 
http://www.shotpix.com/images/05009615851885532458.png
 
http://www.shotpix.com/images/50890896313769601812.png